<svg width="150" height="150" viewBox="0 0 150 150" fill="none" xmlns="http://www.w3.org/2000/svg">
<path d="M16.4113 133.366C15.543 133.366 14.7573 133.07 14.0544 132.478C13.3515 131.844 13 130.977 13 129.878V111.298C13 110.325 13.3101 109.543 13.9304 108.951C14.5919 108.317 15.3569 108 16.2252 108H22.0555C23.9989 108 25.7149 108.55 27.2035 109.649C28.6921 110.706 29.4363 112.228 29.4363 114.215C29.4363 115.272 29.2089 116.265 28.7541 117.195C28.3406 118.083 27.7824 118.759 27.0794 119.224C28.2786 119.647 29.2296 120.429 29.9325 121.571C30.6355 122.67 30.9869 123.98 30.9869 125.502C30.9869 128.039 30.2426 129.984 28.7541 131.337C27.2655 132.689 25.4048 133.366 23.1719 133.366H16.4113ZM18.8302 129.498H23.1719C24.4951 129.498 25.4461 129.096 26.025 128.293C26.6453 127.447 26.9554 126.538 26.9554 125.566C26.9554 124.678 26.6659 123.833 26.087 123.029C25.5082 122.226 24.6191 121.824 23.42 121.824H18.5822C17.6725 121.824 17.2176 122.311 17.2176 123.283V127.849C17.2176 128.948 17.7552 129.498 18.8302 129.498ZM18.5822 118.273H22.1795C23.2133 118.273 23.9989 117.914 24.5364 117.195C25.074 116.476 25.3428 115.715 25.3428 114.912C25.3428 114.151 25.074 113.454 24.5364 112.82C24.0403 112.143 23.2546 111.805 22.1795 111.805H18.8923C17.7758 111.805 17.2176 112.354 17.2176 113.454V116.815C17.2176 117.787 17.6725 118.273 18.5822 118.273Z" fill="#2B7FFF"/>
<path d="M43.4135 134C41.5942 134 39.9402 133.577 38.4516 132.732C37.0044 131.886 35.8673 130.724 35.0403 129.244C34.2133 127.722 33.7998 126.031 33.7998 124.171C33.7998 122.353 34.2133 120.725 35.0403 119.288C35.8673 117.85 37.0044 116.73 38.4516 115.927C39.9402 115.081 41.5942 114.659 43.4135 114.659C45.2329 114.659 46.8662 115.081 48.3134 115.927C49.7606 116.73 50.8977 117.85 51.7247 119.288C52.5931 120.725 53.0272 122.353 53.0272 124.171C53.0272 126.031 52.5931 127.722 51.7247 129.244C50.8977 130.724 49.7606 131.886 48.3134 132.732C46.8662 133.577 45.2329 134 43.4135 134ZM43.4135 130.068C45.0261 130.068 46.3287 129.54 47.321 128.483C48.3134 127.384 48.8096 125.946 48.8096 124.171C48.8096 122.48 48.3134 121.127 47.321 120.112C46.3287 119.098 45.0261 118.59 43.4135 118.59C41.7596 118.59 40.4364 119.098 39.444 120.112C38.493 121.127 38.0174 122.48 38.0174 124.171C38.0174 125.946 38.493 127.384 39.444 128.483C40.4364 129.54 41.7596 130.068 43.4135 130.068Z" fill="#2B7FFF"/>
<path d="M61.1427 134C59.5301 134 58.517 133.218 58.1035 131.654L54.32 117.449C54.2787 117.322 54.258 117.195 54.258 117.068C54.258 116.941 54.258 116.836 54.258 116.751C54.258 116.159 54.4441 115.673 54.8162 115.293C55.2297 114.87 55.7466 114.659 56.3668 114.659C56.8217 114.659 57.2352 114.785 57.6073 115.039C58.0208 115.25 58.2689 115.589 58.3516 116.054L60.6465 127.088C60.7292 127.553 60.9153 127.785 61.2047 127.785C61.4941 127.785 61.7009 127.553 61.8249 127.088L65.0502 117.322C65.2569 116.73 65.6084 116.307 66.1046 116.054C66.6008 115.758 67.1176 115.61 67.6552 115.61C68.1927 115.61 68.6889 115.758 69.1438 116.054C69.64 116.307 69.9707 116.73 70.1361 117.322L73.3614 127.088C73.4854 127.553 73.6922 127.785 73.9816 127.785C74.2711 127.785 74.4571 127.553 74.5398 127.088L76.8347 116.054C76.9174 115.589 77.1449 115.25 77.517 115.039C77.9305 114.785 78.3647 114.659 78.8195 114.659C79.4397 114.659 79.9359 114.87 80.3081 115.293C80.7216 115.673 80.9283 116.159 80.9283 116.751C80.9283 116.836 80.9283 116.941 80.9283 117.068C80.9283 117.195 80.9076 117.322 80.8663 117.449L77.0828 131.654C76.6693 133.218 75.6563 134 74.0437 134C73.3407 134 72.6998 133.789 72.1209 133.366C71.5834 132.901 71.2112 132.33 71.0045 131.654L68.1514 122.395C67.986 121.846 67.7999 121.571 67.5932 121.571C67.3451 121.571 67.1383 121.846 66.9729 122.395L64.1818 131.654C63.9751 132.33 63.5823 132.901 63.0034 133.366C62.4659 133.789 61.8456 134 61.1427 134Z" fill="#2B7FFF"/>
<path d="M92.4148 134C90.5955 134 88.9415 133.577 87.4529 132.732C86.0057 131.886 84.8686 130.724 84.0416 129.244C83.2146 127.722 82.8011 126.031 82.8011 124.171C82.8011 122.353 83.2146 120.725 84.0416 119.288C84.8686 117.85 86.0057 116.73 87.4529 115.927C88.9415 115.081 90.5955 114.659 92.4148 114.659C94.2342 114.659 95.8675 115.081 97.3147 115.927C98.762 116.73 99.8991 117.85 100.726 119.288C101.594 120.725 102.029 122.353 102.029 124.171C102.029 126.031 101.594 127.722 100.726 129.244C99.8991 130.724 98.762 131.886 97.3147 132.732C95.8675 133.577 94.2342 134 92.4148 134ZM92.4148 130.068C94.0275 130.068 95.33 129.54 96.3224 128.483C97.3147 127.384 97.8109 125.946 97.8109 124.171C97.8109 122.48 97.3147 121.127 96.3224 120.112C95.33 119.098 94.0275 118.59 92.4148 118.59C90.7609 118.59 89.4377 119.098 88.4453 120.112C87.4943 121.127 87.0188 122.48 87.0188 124.171C87.0188 125.946 87.4943 127.384 88.4453 128.483C89.4377 129.54 90.7609 130.068 92.4148 130.068Z" fill="#2B7FFF"/>
<path d="M109.943 123.98V132.034C109.943 132.668 109.716 133.154 109.261 133.493C108.848 133.831 108.372 134 107.835 134C107.297 134 106.801 133.831 106.346 133.493C105.933 133.154 105.726 132.668 105.726 132.034V117.132C105.726 116.413 105.933 115.885 106.346 115.546C106.801 115.166 107.297 114.976 107.835 114.976C108.372 114.976 108.848 115.166 109.261 115.546C109.716 115.885 109.943 116.413 109.943 117.132V117.385C110.522 116.582 111.267 115.927 112.176 115.42C113.127 114.912 114.12 114.659 115.153 114.659C115.65 114.659 116.146 114.722 116.642 114.849C117.138 114.976 117.51 115.229 117.758 115.61C118.007 115.99 118.131 116.413 118.131 116.878C118.131 117.428 117.944 117.935 117.572 118.4C117.242 118.823 116.745 119.034 116.084 119.034C115.794 119.034 115.484 118.992 115.153 118.907C114.864 118.823 114.492 118.78 114.037 118.78C112.838 118.78 111.845 119.246 111.06 120.176C110.316 121.106 109.943 122.374 109.943 123.98Z" fill="#2B7FFF"/>
<path d="M128.324 134C126.546 134 124.954 133.577 123.548 132.732C122.143 131.886 121.047 130.724 120.261 129.244C119.476 127.722 119.083 126.031 119.083 124.171C119.083 122.353 119.476 120.725 120.261 119.288C121.047 117.85 122.143 116.73 123.548 115.927C124.954 115.081 126.546 114.659 128.324 114.659C129.482 114.659 130.516 114.87 131.425 115.293C132.335 115.673 133.121 116.18 133.782 116.815C133.865 116.223 134.113 115.779 134.527 115.483C134.94 115.145 135.395 114.976 135.891 114.976C136.429 114.976 136.904 115.166 137.318 115.546C137.773 115.885 138 116.413 138 117.132V132.034C138 132.668 137.773 133.154 137.318 133.493C136.904 133.831 136.429 134 135.891 134C135.354 134 134.857 133.831 134.403 133.493C133.989 133.154 133.782 132.668 133.782 132.034V131.78C133.121 132.457 132.335 132.985 131.425 133.366C130.516 133.789 129.482 134 128.324 134ZM128.696 130.068C130.268 130.068 131.508 129.54 132.418 128.483C133.328 127.384 133.782 125.946 133.782 124.171C133.782 122.48 133.328 121.127 132.418 120.112C131.508 119.098 130.268 118.59 128.696 118.59C127.084 118.59 125.781 119.098 124.789 120.112C123.797 121.127 123.3 122.48 123.3 124.171C123.3 125.946 123.797 127.384 124.789 128.483C125.781 129.54 127.084 130.068 128.696 130.068Z" fill="#2B7FFF"/>
<path d="M110.968 145C110.702 145 110.47 144.902 110.274 144.706C110.091 144.526 110 144.308 110 144.052C110 143.781 110.091 143.555 110.274 143.374C110.47 143.178 110.702 143.081 110.968 143.081C111.221 143.081 111.438 143.178 111.621 143.374C111.803 143.555 111.895 143.781 111.895 144.052C111.895 144.308 111.803 144.526 111.621 144.706C111.438 144.902 111.221 145 110.968 145Z" fill="#2B7FFF"/>
<path d="M116.698 144.887C115.758 144.887 114.986 144.563 114.383 143.916C113.779 143.269 113.477 142.426 113.477 141.387C113.477 140.725 113.618 140.138 113.898 139.626C114.179 139.114 114.558 138.715 115.035 138.429C115.526 138.143 116.081 138 116.698 138C117.54 138 118.256 138.211 118.845 138.632C119.042 138.768 119.14 138.956 119.14 139.197C119.14 139.438 119.07 139.626 118.93 139.761C118.789 139.897 118.628 139.965 118.445 139.965C118.319 139.965 118.207 139.934 118.109 139.874C117.589 139.498 117.105 139.332 116.656 139.377C116.109 139.438 115.681 139.641 115.372 139.987C115.063 140.318 114.909 140.792 114.909 141.41C114.909 142.057 115.07 142.569 115.393 142.945C115.73 143.306 116.2 143.487 116.804 143.487C117.337 143.487 117.87 143.269 118.403 142.832C118.516 142.727 118.663 142.674 118.845 142.674C119.056 142.674 119.21 142.765 119.309 142.945C119.421 143.111 119.477 143.269 119.477 143.419C119.477 143.63 119.386 143.826 119.203 144.006C118.852 144.338 118.467 144.563 118.046 144.684C117.624 144.819 117.175 144.887 116.698 144.887Z" fill="#2B7FFF"/>
<path d="M123.483 144.887C122.866 144.887 122.304 144.737 121.799 144.435C121.308 144.134 120.922 143.72 120.641 143.194C120.361 142.652 120.22 142.049 120.22 141.387C120.22 140.74 120.361 140.16 120.641 139.648C120.922 139.137 121.308 138.738 121.799 138.452C122.304 138.151 122.866 138 123.483 138C124.101 138 124.655 138.151 125.146 138.452C125.637 138.738 126.023 139.137 126.304 139.648C126.599 140.16 126.746 140.74 126.746 141.387C126.746 142.049 126.599 142.652 126.304 143.194C126.023 143.72 125.637 144.134 125.146 144.435C124.655 144.737 124.101 144.887 123.483 144.887ZM123.483 143.487C124.031 143.487 124.473 143.299 124.809 142.923C125.146 142.531 125.315 142.019 125.315 141.387C125.315 140.785 125.146 140.303 124.809 139.942C124.473 139.581 124.031 139.4 123.483 139.4C122.922 139.4 122.473 139.581 122.136 139.942C121.813 140.303 121.652 140.785 121.652 141.387C121.652 142.019 121.813 142.531 122.136 142.923C122.473 143.299 122.922 143.487 123.483 143.487Z" fill="#2B7FFF"/>
<path d="M128.717 144.887C128.534 144.887 128.366 144.827 128.211 144.706C128.071 144.586 128.001 144.413 128.001 144.187V138.881C128.001 138.625 128.071 138.437 128.211 138.316C128.366 138.181 128.534 138.113 128.717 138.113C128.857 138.113 128.99 138.151 129.117 138.226C129.243 138.286 129.334 138.399 129.39 138.565C129.418 138.655 129.432 138.738 129.432 138.813C129.643 138.572 129.916 138.376 130.253 138.226C130.59 138.075 130.92 138 131.243 138C132.155 138 132.829 138.391 133.264 139.174C133.432 138.858 133.706 138.587 134.085 138.361C134.478 138.12 134.955 138 135.516 138C136.274 138 136.877 138.271 137.326 138.813C137.775 139.355 138 140.153 138 141.206V144.187C138 144.413 137.923 144.586 137.768 144.706C137.614 144.827 137.453 144.887 137.284 144.887C137.102 144.887 136.933 144.827 136.779 144.706C136.639 144.586 136.569 144.413 136.569 144.187V141.342C136.569 140.047 136.119 139.4 135.221 139.4C134.716 139.4 134.351 139.543 134.127 139.829C133.902 140.115 133.762 140.454 133.706 140.845V144.187C133.706 144.413 133.628 144.586 133.474 144.706C133.32 144.827 133.158 144.887 132.99 144.887C132.807 144.887 132.639 144.827 132.485 144.706C132.344 144.586 132.274 144.413 132.274 144.187V141.342C132.274 140.68 132.155 140.19 131.916 139.874C131.678 139.558 131.355 139.4 130.948 139.4C130.345 139.4 129.938 139.603 129.727 140.01C129.531 140.401 129.432 140.838 129.432 141.319V144.187C129.432 144.413 129.355 144.586 129.201 144.706C129.06 144.827 128.899 144.887 128.717 144.887Z" fill="#2B7FFF"/>
<path fill-rule="evenodd" clip-rule="evenodd" d="M108.381 16.9248C108.799 17.609 108.583 18.5043 107.899 18.9224C107.215 19.3406 106.319 19.1244 105.901 18.4401C103.921 15.1985 101.152 12.6397 97.604 10.7551L97.5915 10.7484C94.09 8.84427 90.0016 7.90613 85.3326 7.90613H48.4561C47.2101 7.90613 46.2304 8.07981 45.5382 8.52237L45.5109 8.53946C45.0042 8.8481 44.6478 9.31787 44.4134 9.94248C44.1955 10.6986 44.0936 11.5889 44.0936 12.6111V84.3346C44.0936 85.4095 44.2084 86.4135 44.4455 87.3562C44.6063 87.925 44.909 88.3616 45.3788 88.6476L45.406 88.6647C46.0982 89.1072 47.0779 89.2809 48.324 89.2809H86.6543C90.1704 89.2809 93.478 88.7111 96.5759 87.5658C99.6606 86.3452 102.372 84.6705 104.707 82.5372C105.299 81.9962 106.219 82.0377 106.76 82.6299C107.301 83.2221 107.26 84.1421 106.667 84.683C104.072 87.0542 101.06 88.9193 97.6298 90.2745L97.6005 90.2857C94.1824 91.5516 90.5342 92.1874 86.6543 92.1874H48.324C46.4058 92.1874 44.9233 91.801 43.854 91.122C42.752 90.4465 42.0039 89.4452 41.6356 88.099L41.6283 88.0715C41.3361 86.9147 41.1875 85.6693 41.1875 84.3346V12.6111C41.1875 11.2433 41.3455 10.059 41.6447 9.05596L41.6719 8.97365C42.1445 7.6777 42.925 6.71515 43.9866 6.06508C45.0558 5.38641 46.5384 5 48.4561 5H85.3326C90.53 5 95.0746 6.0731 98.9732 8.19176C103 10.3317 106.133 13.2451 108.381 16.9248Z" fill="#2B7FFF"/>
<path d="M55.3086 82.1807C54.1602 82.1807 53.2667 81.9561 52.6288 81.5069C52.0544 81.1219 51.6715 80.5444 51.4804 79.7743C51.2889 78.9401 51.1934 78.0417 51.1934 77.0795V19.9086C51.1934 18.9461 51.2889 18.1119 51.4804 17.4064C51.7357 16.6363 52.1503 16.0588 52.7247 15.6738C53.3629 15.2246 54.2561 15 55.4049 15H82.1086C85.6819 15 88.8084 15.8021 91.4882 17.4064C94.2319 19.0106 96.3697 21.192 97.9007 23.951C99.4321 26.7103 100.166 29.7259 100.102 32.9983C100.166 34.6667 99.9744 36.3027 99.5276 37.9069C99.0809 39.5112 98.4109 41.0188 97.5178 42.4306C96.6881 43.7781 95.6356 44.9011 94.3591 45.7991C96.082 46.89 97.5495 48.3018 98.7618 50.034C99.974 51.7666 100.899 53.6913 101.537 55.8089C102.176 57.9262 102.494 60.1401 102.494 62.4498C102.431 65.2088 101.92 67.8073 100.963 70.2458C100.006 72.6201 98.6341 74.7052 96.8475 76.5016C95.0608 78.2984 92.9872 79.7101 90.6261 80.7365C88.2651 81.6991 85.7447 82.1803 83.0649 82.1803H55.3083L55.3086 82.1807Z" fill="#2B7FFF"/>
</svg>
