<svg width="1968" height="526" viewBox="0 0 1968 526" fill="none" xmlns="http://www.w3.org/2000/svg">
<path d="M677.744 262.149C692.559 254.943 700.64 241.996 700.64 224.827C700.64 195.612 677.576 176.754 641.942 176.754H571.572V353.96H644.018C688.013 353.96 707.71 328.854 707.71 303.917C707.71 283.371 697.665 269.41 677.8 262.205L677.744 262.149ZM636.948 251.735H601.089V201.635H637.958C661.583 201.635 671.179 208.615 671.179 225.84C671.179 243.066 659.675 251.735 637.004 251.735H636.948ZM601.089 276.278H632.963C658.665 276.278 676.846 278.079 676.846 301.834C676.846 320.129 663.659 329.079 636.611 329.079H601.089V276.278Z" fill="#2B7FFF"/>
<path d="M839.692 288.724C839.692 247.237 816.741 222.469 778.357 222.469C736.775 222.469 715.002 257.032 715.002 291.088C715.002 330.549 740.703 356.95 778.974 356.95C813.149 356.95 835.54 340.006 839.019 311.579L839.356 308.201H809.389L809.221 310.959C808.379 321.148 800.242 332.069 779.704 332.069C759.165 332.069 746.651 318.84 745.249 297.393H839.636V288.612L839.692 288.724ZM747.1 273.244C750.748 256.919 762.308 247.35 778.694 247.35C795.08 247.35 805.854 256.525 808.492 273.244H747.1Z" fill="#2B7FFF"/>
<path d="M957.992 314.885C957.992 340.836 937.117 356.935 903.391 356.935C867.981 356.935 846.433 341.286 845.703 314.998V311.845H875.333L875.501 314.66C875.838 318.938 876.848 332.054 904.681 332.054C920.674 332.054 929.485 326.312 929.485 315.842C929.485 309.369 927.913 304.19 907.712 302.051L890.989 300.362C863.043 297.491 849.463 285.388 849.463 263.378C849.463 237.653 868.599 222.285 900.697 222.285C932.795 222.285 953.671 236.246 955.354 261.408L955.523 264.673H926.847L926.567 262.027C925.613 254.934 921.797 246.885 900.36 246.885C885.433 246.885 876.904 252.007 876.904 261.014C876.904 267.713 879.934 271.709 895.703 273.454L912.425 275.143C944.804 278.408 957.992 289.892 957.992 314.773V314.885Z" fill="#2B7FFF"/>
<path d="M1013.65 250.307V312.847C1013.65 325.288 1016.18 328.665 1025.38 328.665H1047.16V353.828H1023.36C987.504 353.828 984.474 333 984.474 313.467V250.251H962.027V226.102H984.474V192.102H1013.6V226.102H1047.77V250.251H1013.6L1013.65 250.307Z" fill="#2B7FFF"/>
<path d="M1176.56 222.469C1131.22 222.469 1110.91 256.131 1110.91 289.4C1110.91 322.668 1131.28 357.006 1176.56 357.006C1221.85 357.006 1242.33 323.062 1242.33 289.4C1242.33 255.737 1221.96 222.469 1176.56 222.469ZM1176.56 331.393C1148.28 331.393 1140.7 304.993 1140.7 289.343C1140.7 268.741 1151.81 247.969 1176.56 247.969C1201.31 247.969 1212.42 268.741 1212.42 289.343C1212.42 309.946 1201.2 331.393 1176.56 331.393Z" fill="#2B7FFF"/>
<path d="M1294.57 213.726V226.166H1329.08V250.315H1294.57V353.892H1265.45V250.315H1241.6V226.166H1265.45V213.388C1265.45 181.245 1279.81 166.328 1310.68 166.328H1330.15V191.491H1312.75C1298.84 191.491 1294.63 196.669 1294.63 213.726H1294.57Z" fill="#2B7FFF"/>
<path d="M1618.7 176.754L1618.59 185.254L1574.48 353.904H1534.64L1508.94 261.642C1507.31 256.125 1504.17 244.698 1501.75 232.258C1499.51 242.446 1496.93 253.086 1494.57 261.304L1467.8 353.96H1428.75L1383.8 184.522V176.81H1422.69L1445.36 273.125C1447.04 280.106 1448.95 288.268 1450.69 297.387C1453.55 284.947 1456.81 274.251 1458.94 267.046L1485.09 176.754H1520.44L1547.88 272.394C1550.13 279.937 1551.98 287.311 1553.55 294.573C1555.18 285.791 1557.2 277.91 1558.82 271.493L1581.5 176.754H1618.7Z" fill="#2B7FFF"/>
<path d="M1745.36 289.989C1745.36 247.489 1720.33 222.102 1678.35 222.102C1631.33 222.102 1609.95 256.946 1609.95 289.314C1609.95 321.682 1631.44 357.258 1678.64 357.258C1715.95 357.258 1740.03 340.033 1744.68 309.973L1745.19 306.483H1705.52L1705.23 309.129C1703.61 321.513 1694.46 328.324 1679.36 328.324C1661.3 328.324 1651.81 314.814 1649.85 300.403H1745.41V289.933L1745.36 289.989ZM1678.35 250.979C1692.33 250.979 1702.09 259.198 1704.45 272.539H1651.64C1654.9 261.281 1663.93 250.979 1678.35 250.979Z" fill="#2B7FFF"/>
<path d="M1832.56 222.113C1818.75 222.113 1805.73 226.729 1796.47 234.498C1798.05 224.309 1798.33 214.232 1798.33 205.282V166.328H1760.11V353.892H1789.4L1791.54 342.353C1802.14 353.217 1818.81 357.27 1830.87 357.27C1875.77 357.27 1896.25 321.525 1896.25 288.369C1896.25 257.802 1879.58 222.113 1832.56 222.113ZM1826.16 326.028C1811.85 326.028 1801.47 317.753 1797.71 309.929V270.074C1804.11 259.435 1814.94 253.13 1826.83 253.13C1852.76 253.13 1856.69 275.253 1856.69 288.481C1856.69 312.743 1845.86 326.084 1826.16 326.084V326.028Z" fill="#2B7FFF"/>
<path d="M245 49C261.641 49 277.716 55.0562 290.224 66.0366L293.507 69.1496L308.45 84.092C312.525 88.1672 317.903 90.7143 323.619 91.3935L326.506 91.5633H347.901C384.183 91.5633 414.181 119.92 416.276 156.144L416.389 160.049V181.444C416.389 187.217 418.37 192.877 421.936 197.349L423.86 199.5L438.803 214.442C464.443 239.969 465.859 281.06 441.973 308.228L438.86 311.511L423.917 326.454C419.842 330.529 417.295 335.906 416.615 341.622L416.446 344.509V365.904C416.446 402.184 388.088 432.182 351.863 434.277L347.958 434.39H326.563C320.789 434.39 315.186 436.314 310.658 439.937L308.507 441.861L293.564 456.804C268.037 482.443 226.944 483.858 199.776 459.973L196.493 456.86L181.55 441.918C177.475 437.842 172.097 435.295 166.381 434.616L163.494 434.446H142.099C105.817 434.446 75.8185 406.09 73.7243 369.866L73.6111 365.96V344.566C73.6111 338.792 71.6866 333.189 68.0641 328.661L66.1397 326.51L51.1969 311.568C25.5565 286.041 24.1415 244.949 48.0273 217.781L51.1403 214.499L66.0831 199.556C70.1584 195.481 72.7055 190.104 73.3847 184.387L73.5545 181.501V160.106L73.6677 156.201C75.6487 121.448 103.383 93.7141 138.137 91.7331L142.042 91.6199H163.437C169.211 91.6199 174.814 89.6955 179.342 86.073L181.493 84.1486L196.436 69.2062C209.285 56.2448 226.774 49 245 49ZM324.129 204.82C315.752 196.443 302.224 196.443 293.847 204.82L223.378 275.287L195.7 247.666L193.663 245.912C184.323 238.667 170.852 240.421 163.664 249.76C157.098 258.25 157.834 270.363 165.418 277.947L208.209 320.737L210.247 322.492C218.794 329.114 230.85 328.321 238.491 320.737L324.072 235.158L325.827 233.12C332.449 224.573 331.657 212.518 324.072 204.877L324.129 204.82Z" fill="#2B7FFF"/>
</svg>
